<mxfile host="app.diagrams.net" agent="Mozilla/5.0 (Windows NT 10.0; Win64; x64) AppleWebKit/537.36 (KHTML, like Gecko) Chrome/130.0.0.0 Safari/537.36" version="24.8.3">
  <diagram id="C5RBs43oDa-KdzZeNtuy" name="Page-1">
    <mxGraphModel dx="1434" dy="746" grid="1" gridSize="10" guides="1" tooltips="1" connect="1" arrows="1" fold="1" page="1" pageScale="1" pageWidth="827" pageHeight="1169" math="0" shadow="0">
      <root>
        <mxCell id="WIyWlLk6GJQsqaUBKTNV-0" />
        <mxCell id="WIyWlLk6GJQsqaUBKTNV-1" parent="WIyWlLk6GJQsqaUBKTNV-0" />
        <mxCell id="g6lIUKs3s5liWfOCwtXh-5" value="EventHandler" style="rounded=1;whiteSpace=wrap;html=1;" vertex="1" parent="WIyWlLk6GJQsqaUBKTNV-1">
          <mxGeometry x="500" y="20" width="120" height="60" as="geometry" />
        </mxCell>
        <mxCell id="g6lIUKs3s5liWfOCwtXh-7" style="edgeStyle=orthogonalEdgeStyle;rounded=0;orthogonalLoop=1;jettySize=auto;html=1;entryX=0.5;entryY=0;entryDx=0;entryDy=0;entryPerimeter=0;" edge="1" parent="WIyWlLk6GJQsqaUBKTNV-1" source="g6lIUKs3s5liWfOCwtXh-6" target="g6lIUKs3s5liWfOCwtXh-8">
          <mxGeometry relative="1" as="geometry">
            <mxPoint x="80" y="220" as="targetPoint" />
          </mxGeometry>
        </mxCell>
        <mxCell id="g6lIUKs3s5liWfOCwtXh-6" value="Zone" style="rounded=1;whiteSpace=wrap;html=1;" vertex="1" parent="WIyWlLk6GJQsqaUBKTNV-1">
          <mxGeometry x="40" y="20" width="120" height="60" as="geometry" />
        </mxCell>
        <mxCell id="g6lIUKs3s5liWfOCwtXh-8" value="List of Events" style="swimlane;fontStyle=0;childLayout=stackLayout;horizontal=1;startSize=30;horizontalStack=0;resizeParent=1;resizeParentMax=0;resizeLast=0;collapsible=1;marginBottom=0;whiteSpace=wrap;html=1;" vertex="1" parent="WIyWlLk6GJQsqaUBKTNV-1">
          <mxGeometry x="30" y="230" width="140" height="120" as="geometry" />
        </mxCell>
        <mxCell id="g6lIUKs3s5liWfOCwtXh-9" value="Event 1" style="text;strokeColor=none;fillColor=none;align=left;verticalAlign=middle;spacingLeft=4;spacingRight=4;overflow=hidden;points=[[0,0.5],[1,0.5]];portConstraint=eastwest;rotatable=0;whiteSpace=wrap;html=1;" vertex="1" parent="g6lIUKs3s5liWfOCwtXh-8">
          <mxGeometry y="30" width="140" height="30" as="geometry" />
        </mxCell>
        <mxCell id="g6lIUKs3s5liWfOCwtXh-10" value="Event 2" style="text;strokeColor=none;fillColor=none;align=left;verticalAlign=middle;spacingLeft=4;spacingRight=4;overflow=hidden;points=[[0,0.5],[1,0.5]];portConstraint=eastwest;rotatable=0;whiteSpace=wrap;html=1;" vertex="1" parent="g6lIUKs3s5liWfOCwtXh-8">
          <mxGeometry y="60" width="140" height="30" as="geometry" />
        </mxCell>
        <mxCell id="g6lIUKs3s5liWfOCwtXh-11" value="Event 3" style="text;strokeColor=none;fillColor=none;align=left;verticalAlign=middle;spacingLeft=4;spacingRight=4;overflow=hidden;points=[[0,0.5],[1,0.5]];portConstraint=eastwest;rotatable=0;whiteSpace=wrap;html=1;" vertex="1" parent="g6lIUKs3s5liWfOCwtXh-8">
          <mxGeometry y="90" width="140" height="30" as="geometry" />
        </mxCell>
        <mxCell id="g6lIUKs3s5liWfOCwtXh-13" value="Combat" style="rounded=1;whiteSpace=wrap;html=1;" vertex="1" parent="WIyWlLk6GJQsqaUBKTNV-1">
          <mxGeometry x="270" y="20" width="120" height="60" as="geometry" />
        </mxCell>
        <mxCell id="g6lIUKs3s5liWfOCwtXh-21" style="edgeStyle=orthogonalEdgeStyle;rounded=0;orthogonalLoop=1;jettySize=auto;html=1;entryX=0.5;entryY=1;entryDx=0;entryDy=0;" edge="1" parent="WIyWlLk6GJQsqaUBKTNV-1" source="g6lIUKs3s5liWfOCwtXh-20" target="g6lIUKs3s5liWfOCwtXh-5">
          <mxGeometry relative="1" as="geometry" />
        </mxCell>
        <mxCell id="g6lIUKs3s5liWfOCwtXh-22" style="edgeStyle=orthogonalEdgeStyle;rounded=0;orthogonalLoop=1;jettySize=auto;html=1;entryX=0.5;entryY=1;entryDx=0;entryDy=0;exitX=0.499;exitY=-0.011;exitDx=0;exitDy=0;exitPerimeter=0;" edge="1" parent="WIyWlLk6GJQsqaUBKTNV-1" source="g6lIUKs3s5liWfOCwtXh-20" target="g6lIUKs3s5liWfOCwtXh-13">
          <mxGeometry relative="1" as="geometry">
            <Array as="points">
              <mxPoint x="455" y="190" />
              <mxPoint x="330" y="190" />
            </Array>
          </mxGeometry>
        </mxCell>
        <mxCell id="g6lIUKs3s5liWfOCwtXh-20" value="Checks, if the event is &quot;combative&quot;&amp;nbsp;&lt;div&gt;the enemy it contains is extracted,&lt;div&gt;and send to the combat singleton.&lt;/div&gt;&lt;div&gt;If the enemy is then defeated,&lt;/div&gt;&lt;div&gt;the event is destroyed&lt;/div&gt;&lt;div&gt;and removed from the list.&lt;/div&gt;&lt;/div&gt;&lt;div&gt;&lt;br&gt;&lt;/div&gt;&lt;div&gt;If the event isn&#39;t a combat event,&lt;/div&gt;&lt;div&gt;it is instead sent to the Eventhandler.&lt;/div&gt;" style="text;html=1;align=left;verticalAlign=middle;resizable=0;points=[];autosize=1;sketch=1;curveFitting=1;jiggle=2;fillColor=#f5f5f5;fontColor=#333333;strokeColor=#666666;dashed=1;" vertex="1" parent="WIyWlLk6GJQsqaUBKTNV-1">
          <mxGeometry x="350" y="230" width="220" height="140" as="geometry" />
        </mxCell>
        <mxCell id="g6lIUKs3s5liWfOCwtXh-14" style="edgeStyle=orthogonalEdgeStyle;rounded=0;orthogonalLoop=1;jettySize=auto;html=1;entryX=0.006;entryY=0.477;entryDx=0;entryDy=0;entryPerimeter=0;" edge="1" parent="WIyWlLk6GJQsqaUBKTNV-1" source="g6lIUKs3s5liWfOCwtXh-9" target="g6lIUKs3s5liWfOCwtXh-20">
          <mxGeometry relative="1" as="geometry">
            <mxPoint x="300" y="260" as="targetPoint" />
          </mxGeometry>
        </mxCell>
        <mxCell id="g6lIUKs3s5liWfOCwtXh-24" value="&lt;i&gt;A zone contains a list of events. They can then be gotten from the list when the player explores.&lt;/i&gt;" style="rounded=0;whiteSpace=wrap;html=1;align=left;dashed=1;sketch=1;curveFitting=1;jiggle=2;fillColor=#f5f5f5;fontColor=#333333;strokeColor=#666666;" vertex="1" parent="WIyWlLk6GJQsqaUBKTNV-1">
          <mxGeometry x="150" y="110" width="120" height="90" as="geometry" />
        </mxCell>
        <mxCell id="g6lIUKs3s5liWfOCwtXh-35" value="&lt;div style=&quot;text-align: center;&quot;&gt;&lt;span style=&quot;background-color: initial;&quot;&gt;&lt;font style=&quot;font-size: 20px;&quot;&gt;Event&lt;/font&gt;&lt;/span&gt;&lt;/div&gt;&lt;div&gt;Enum för combat or no combat&lt;/div&gt;&lt;div&gt;Variable för HostileEntity&lt;/div&gt;&lt;div&gt;Description&lt;/div&gt;&lt;div&gt;Challenge (So difficulty and what attribute to roll)&lt;/div&gt;&lt;div&gt;Failtext&lt;/div&gt;&lt;div&gt;FailResult&lt;/div&gt;&lt;div&gt;SucceedText&lt;/div&gt;&lt;div&gt;SucceedResult/Reward&lt;/div&gt;" style="whiteSpace=wrap;html=1;aspect=fixed;align=left;" vertex="1" parent="WIyWlLk6GJQsqaUBKTNV-1">
          <mxGeometry x="620" y="230" width="180" height="180" as="geometry" />
        </mxCell>
        <mxCell id="g6lIUKs3s5liWfOCwtXh-39" style="edgeStyle=orthogonalEdgeStyle;rounded=0;orthogonalLoop=1;jettySize=auto;html=1;exitX=0;exitY=0.5;exitDx=0;exitDy=0;entryX=1;entryY=0.5;entryDx=0;entryDy=0;curved=1;" edge="1" parent="WIyWlLk6GJQsqaUBKTNV-1" source="g6lIUKs3s5liWfOCwtXh-37" target="g6lIUKs3s5liWfOCwtXh-5">
          <mxGeometry relative="1" as="geometry" />
        </mxCell>
        <mxCell id="g6lIUKs3s5liWfOCwtXh-40" style="rounded=0;orthogonalLoop=1;jettySize=auto;html=1;exitX=0.5;exitY=1;exitDx=0;exitDy=0;entryX=0.5;entryY=0;entryDx=0;entryDy=0;edgeStyle=orthogonalEdgeStyle;curved=1;" edge="1" parent="WIyWlLk6GJQsqaUBKTNV-1" source="g6lIUKs3s5liWfOCwtXh-37" target="g6lIUKs3s5liWfOCwtXh-35">
          <mxGeometry relative="1" as="geometry" />
        </mxCell>
        <mxCell id="g6lIUKs3s5liWfOCwtXh-37" value="&lt;i&gt;EventHandler är en singelton den ende som är &quot;smart&quot; här.&lt;/i&gt;&lt;div&gt;&lt;i&gt;&lt;br&gt;&lt;/i&gt;&lt;/div&gt;&lt;div&gt;&lt;i&gt;Event håller bara datan som Eventhandlern vill åt.&lt;/i&gt;&lt;/div&gt;" style="rounded=0;whiteSpace=wrap;html=1;align=left;dashed=1;sketch=1;curveFitting=1;jiggle=2;" vertex="1" parent="WIyWlLk6GJQsqaUBKTNV-1">
          <mxGeometry x="670" y="20" width="120" height="130" as="geometry" />
        </mxCell>
      </root>
    </mxGraphModel>
  </diagram>
</mxfile>
